<?xml version="1.0" encoding="utf-8"?>
<!-- Generator: Adobe Illustrator 27.8.0, SVG Export Plug-In . SVG Version: 6.00 Build 0)  -->
<svg version="1.1" id="Layer_1" xmlns="http://www.w3.org/2000/svg" xmlns:xlink="http://www.w3.org/1999/xlink" x="0px" y="0px"
	 viewBox="0 0 24 24" style="enable-background:new 0 0 24 24;" xml:space="preserve">
<path d="M12,18c-0.8,0-1.6-0.2-2.3-0.5s-1.4-0.7-1.9-1.3c-0.5-0.5-1-1.2-1.3-1.9S6,12.8,6,12s0.2-1.6,0.5-2.3s0.7-1.4,1.3-1.9
	s1.2-1,1.9-1.3S11.2,6,12,6s1.6,0.2,2.3,0.5s1.4,0.7,1.9,1.3c0.5,0.5,1,1.2,1.3,1.9S18,11.2,18,12s-0.2,1.6-0.5,2.3
	s-0.7,1.4-1.3,1.9c-0.5,0.5-1.2,1-1.9,1.3S12.8,18,12,18z"/>
</svg>
