<?xml version="1.0" encoding="utf-8"?>
<!-- Generator: Adobe Illustrator 27.8.0, SVG Export Plug-In . SVG Version: 6.00 Build 0)  -->
<svg version="1.1" id="Layer_1" xmlns="http://www.w3.org/2000/svg" xmlns:xlink="http://www.w3.org/1999/xlink" x="0px" y="0px"
	 viewBox="0 0 48 48" style="enable-background:new 0 0 48 48;" xml:space="preserve">
<path d="M24,42c-5,0-9.2-1.8-12.8-5.3C7.8,33.2,6,28.9,6,23.9h3c0,4.2,1.5,7.7,4.4,10.7C16.3,37.5,19.8,39,24,39
	c4.2,0,7.7-1.5,10.6-4.4C37.5,31.7,39,28.2,39,24s-1.5-7.7-4.4-10.6C31.7,10.5,28.2,9,24,9c-2.3,0-4.4,0.5-6.4,1.5s-3.8,2.4-5.3,4.1
	h5.2v3H7.1V7.2h3v5.3c1.8-2.1,3.9-3.7,6.3-4.8S21.3,6,24,6c2.5,0,4.8,0.5,7,1.4s4.1,2.2,5.7,3.8c1.6,1.6,2.9,3.5,3.8,5.7
	s1.4,4.5,1.4,7s-0.5,4.8-1.4,7s-2.2,4.1-3.8,5.7c-1.6,1.6-3.5,2.9-5.7,3.8S26.5,42,24,42z"/>
</svg>
